<svg xmlns="http://www.w3.org/2000/svg" xmlns:xlink="http://www.w3.org/1999/xlink" width="570" zoomAndPan="magnify" viewBox="0 0 427.5 179.999997" height="240" preserveAspectRatio="xMidYMid meet" version="1.0"><defs><g/><clipPath id="83eaa5ae7f"><path d="M 278 26 L 342 26 L 342 90 L 278 90 Z M 278 26 " clip-rule="nonzero"/></clipPath><clipPath id="838df900ba"><path d="M 305.457031 -10.207031 L 379.089844 67.769531 L 317.472656 125.957031 L 243.839844 47.980469 Z M 305.457031 -10.207031 " clip-rule="nonzero"/></clipPath><clipPath id="efc455eba8"><path d="M 305.457031 -10.207031 L 379.089844 67.769531 L 317.472656 125.957031 L 243.839844 47.980469 Z M 305.457031 -10.207031 " clip-rule="nonzero"/></clipPath><clipPath id="b7934f0195"><path d="M 288 5 L 363 5 L 363 84 L 288 84 Z M 288 5 " clip-rule="nonzero"/></clipPath><clipPath id="f021e207e0"><path d="M 305.457031 -10.207031 L 379.089844 67.769531 L 317.472656 125.957031 L 243.839844 47.980469 Z M 305.457031 -10.207031 " clip-rule="nonzero"/></clipPath><clipPath id="9592ad3ef2"><path d="M 305.457031 -10.207031 L 379.089844 67.769531 L 317.472656 125.957031 L 243.839844 47.980469 Z M 305.457031 -10.207031 " clip-rule="nonzero"/></clipPath><clipPath id="d2fba84c2f"><path d="M 288 26 L 342 26 L 342 83 L 288 83 Z M 288 26 " clip-rule="nonzero"/></clipPath><clipPath id="22902ea2c8"><path d="M 305.457031 -10.207031 L 379.089844 67.769531 L 317.472656 125.957031 L 243.839844 47.980469 Z M 305.457031 -10.207031 " clip-rule="nonzero"/></clipPath><clipPath id="904ff07981"><path d="M 305.457031 -10.207031 L 379.089844 67.769531 L 317.472656 125.957031 L 243.839844 47.980469 Z M 305.457031 -10.207031 " clip-rule="nonzero"/></clipPath><clipPath id="195626477d"><path d="M 287 47 L 321 47 L 321 82 L 287 82 Z M 287 47 " clip-rule="nonzero"/></clipPath><clipPath id="2a0715115c"><path d="M 305.457031 -10.207031 L 379.089844 67.769531 L 317.472656 125.957031 L 243.839844 47.980469 Z M 305.457031 -10.207031 " clip-rule="nonzero"/></clipPath><clipPath id="4ce87d828b"><path d="M 305.457031 -10.207031 L 379.089844 67.769531 L 317.472656 125.957031 L 243.839844 47.980469 Z M 305.457031 -10.207031 " clip-rule="nonzero"/></clipPath><clipPath id="e8db638313"><path d="M 278 72 L 296 72 L 296 90 L 278 90 Z M 278 72 " clip-rule="nonzero"/></clipPath><clipPath id="9fea2e1bd4"><path d="M 305.457031 -10.207031 L 379.089844 67.769531 L 317.472656 125.957031 L 243.839844 47.980469 Z M 305.457031 -10.207031 " clip-rule="nonzero"/></clipPath><clipPath id="f1873da698"><path d="M 305.457031 -10.207031 L 379.089844 67.769531 L 317.472656 125.957031 L 243.839844 47.980469 Z M 305.457031 -10.207031 " clip-rule="nonzero"/></clipPath></defs><g fill="#0e1622" fill-opacity="1"><g transform="translate(40.464451, 142.01239)"><g><path d="M 21.9375 0.484375 C 16.34375 0.484375 11.753906 -0.84375 8.171875 -3.5 C 4.585938 -6.15625 2.660156 -9.960938 2.390625 -14.921875 L 16.625 -14.921875 C 16.757812 -13.234375 17.253906 -12.003906 18.109375 -11.234375 C 18.972656 -10.460938 20.085938 -10.078125 21.453125 -10.078125 C 22.679688 -10.078125 23.691406 -10.382812 24.484375 -11 C 25.273438 -11.613281 25.671875 -12.460938 25.671875 -13.546875 C 25.671875 -14.960938 25.015625 -16.054688 23.703125 -16.828125 C 22.390625 -17.597656 20.253906 -18.457031 17.296875 -19.40625 C 14.160156 -20.457031 11.628906 -21.46875 9.703125 -22.4375 C 7.773438 -23.414062 6.09375 -24.847656 4.65625 -26.734375 C 3.226562 -28.617188 2.515625 -31.082031 2.515625 -34.125 C 2.515625 -37.207031 3.285156 -39.847656 4.828125 -42.046875 C 6.378906 -44.253906 8.515625 -45.925781 11.234375 -47.0625 C 13.960938 -48.195312 17.050781 -48.765625 20.5 -48.765625 C 26.082031 -48.765625 30.539062 -47.457031 33.875 -44.84375 C 37.21875 -42.238281 39.003906 -38.570312 39.234375 -33.84375 L 24.71875 -33.84375 C 24.675781 -35.300781 24.234375 -36.390625 23.390625 -37.109375 C 22.554688 -37.835938 21.476562 -38.203125 20.15625 -38.203125 C 19.15625 -38.203125 18.335938 -37.90625 17.703125 -37.3125 C 17.066406 -36.726562 16.75 -35.890625 16.75 -34.796875 C 16.75 -33.890625 17.097656 -33.109375 17.796875 -32.453125 C 18.503906 -31.796875 19.378906 -31.226562 20.421875 -30.75 C 21.472656 -30.269531 23.019531 -29.671875 25.0625 -28.953125 C 28.101562 -27.898438 30.609375 -26.863281 32.578125 -25.84375 C 34.554688 -24.820312 36.257812 -23.390625 37.6875 -21.546875 C 39.125 -19.710938 39.84375 -17.390625 39.84375 -14.578125 C 39.84375 -11.710938 39.125 -9.144531 37.6875 -6.875 C 36.257812 -4.601562 34.195312 -2.804688 31.5 -1.484375 C 28.800781 -0.171875 25.613281 0.484375 21.9375 0.484375 Z M 21.9375 0.484375 "/></g></g></g><g fill="#0e1622" fill-opacity="1"><g transform="translate(80.640612, 142.01239)"><g><path d="M 71.453125 -48.015625 L 59.65625 0 L 43.25 0 L 36.640625 -29.421875 L 29.90625 0 L 13.484375 0 L 1.84375 -48.015625 L 16.28125 -48.015625 L 21.859375 -15.1875 L 29.421875 -48.015625 L 44.0625 -48.015625 L 51.421875 -15.453125 L 57 -48.015625 Z M 71.453125 -48.015625 "/></g></g></g><g fill="#0e1622" fill-opacity="1"><g transform="translate(151.868494, 142.01239)"><g><path d="M 17.15625 -48.015625 L 17.15625 0 L 3.8125 0 L 3.8125 -48.015625 Z M 17.15625 -48.015625 "/></g></g></g><g fill="#0e1622" fill-opacity="1"><g transform="translate(170.798722, 142.01239)"><g><path d="M 36.375 -48.015625 L 36.375 -37.390625 L 17.15625 -37.390625 L 17.15625 -28.953125 L 31.328125 -28.953125 L 31.328125 -18.796875 L 17.15625 -18.796875 L 17.15625 0 L 3.8125 0 L 3.8125 -48.015625 Z M 36.375 -48.015625 "/></g></g></g><g fill="#0e1622" fill-opacity="1"><g transform="translate(206.957209, 142.01239)"><g><path d="M 39.984375 -48.015625 L 39.984375 -37.390625 L 27.171875 -37.390625 L 27.171875 0 L 13.828125 0 L 13.828125 -37.390625 L 1.15625 -37.390625 L 1.15625 -48.015625 Z M 39.984375 -48.015625 "/></g></g></g><g fill="#0e1622" fill-opacity="1"><g transform="translate(246.043831, 142.01239)"><g><path d="M 17.15625 -10.21875 L 32.078125 -10.21875 L 32.078125 0 L 3.8125 0 L 3.8125 -48.015625 L 17.15625 -48.015625 Z M 17.15625 -10.21875 "/></g></g></g><g fill="#0e1622" fill-opacity="1"><g transform="translate(277.43562, 142.01239)"><g><path d="M 17.15625 -48.015625 L 17.15625 0 L 3.8125 0 L 3.8125 -48.015625 Z M 17.15625 -48.015625 "/></g></g></g><g fill="#0e1622" fill-opacity="1"><g transform="translate(296.365848, 142.01239)"><g><path d="M 48.296875 0 L 34.9375 0 L 17.15625 -26.828125 L 17.15625 0 L 3.8125 0 L 3.8125 -48.015625 L 17.15625 -48.015625 L 34.9375 -20.84375 L 34.9375 -48.015625 L 48.296875 -48.015625 Z M 48.296875 0 "/></g></g></g><g fill="#0e1622" fill-opacity="1"><g transform="translate(346.415917, 142.01239)"><g><path d="M 32.21875 0 L 17.15625 -21.046875 L 17.15625 0 L 3.8125 0 L 3.8125 -48.015625 L 17.15625 -48.015625 L 17.15625 -27.3125 L 32.078125 -48.015625 L 47.46875 -48.015625 L 29.828125 -24.71875 L 48.359375 0 Z M 32.21875 0 "/></g></g></g><g clip-path="url(#83eaa5ae7f)"><g clip-path="url(#838df900ba)"><g clip-path="url(#efc455eba8)"><path fill="#fa6000" d="M 288.355469 37.136719 C 300.320312 37.648438 310.652344 42.074219 318.933594 50.847656 C 327.210938 59.617188 331.027344 70.1875 330.851562 82.085938 C 334.417969 82.195312 337.949219 82.300781 341.480469 82.410156 C 342.558594 51.792969 317.769531 26.9375 288.644531 26.519531 C 288.546875 30.039062 288.453125 33.558594 288.355469 37.136719 Z M 287.636719 58.480469 C 293.839844 58.746094 299.160156 60.988281 303.410156 65.488281 C 307.667969 69.992188 309.597656 75.453125 309.507812 81.476562 C 313.109375 81.582031 316.640625 81.691406 320.167969 81.792969 C 320.75 62.519531 305.085938 47.972656 287.957031 47.847656 C 287.949219 47.914062 287.933594 47.984375 287.929688 48.050781 C 287.832031 51.503906 287.738281 54.953125 287.636719 58.480469 Z M 292.878906 87.316406 C 296.335938 84.050781 296.496094 78.621094 293.238281 75.171875 C 289.996094 71.742188 284.5625 71.578125 281.121094 74.804688 C 277.660156 78.046875 277.488281 83.5 280.738281 86.953125 C 284 90.417969 289.417969 90.578125 292.878906 87.316406 Z M 292.878906 87.316406 " fill-opacity="1" fill-rule="nonzero"/></g></g></g><g clip-path="url(#b7934f0195)"><g clip-path="url(#f021e207e0)"><g clip-path="url(#9592ad3ef2)"><path fill="#fa6000" d="M 362.734375 83.222656 C 362.550781 83.191406 362.363281 83.140625 362.175781 83.132812 C 359.046875 83.042969 355.914062 82.957031 352.789062 82.875 C 352.589844 82.867188 352.394531 82.917969 352.1875 82.949219 C 352.417969 64.933594 346.75 49.238281 334.433594 36.191406 C 322.125 23.160156 306.796875 16.601562 288.878906 15.792969 C 288.878906 15.625 288.878906 15.4375 288.882812 15.246094 C 288.972656 12.101562 289.066406 8.953125 289.15625 5.808594 C 289.160156 5.617188 289.117188 5.429688 289.097656 5.242188 C 289.148438 5.195312 289.203125 5.144531 289.253906 5.09375 C 289.425781 5.121094 289.597656 5.164062 289.773438 5.167969 C 293.53125 5.324219 297.265625 5.707031 300.964844 6.394531 C 310.734375 8.207031 319.820312 11.773438 328.179688 17.148438 C 331.835938 19.5 335.28125 22.132812 338.453125 25.113281 C 339.074219 25.699219 339.71875 26.257812 340.355469 26.832031 C 341.609375 28.160156 342.859375 29.484375 344.113281 30.8125 C 344.179688 30.917969 344.234375 31.03125 344.3125 31.128906 C 345.6875 32.863281 347.105469 34.570312 348.433594 36.339844 C 351.15625 39.960938 353.4375 43.847656 355.390625 47.933594 C 360.492188 58.605469 362.96875 69.863281 362.847656 81.695312 C 362.839844 82.15625 362.875 82.617188 362.890625 83.074219 C 362.839844 83.125 362.785156 83.171875 362.734375 83.222656 Z M 362.734375 83.222656 " fill-opacity="1" fill-rule="nonzero"/></g></g></g><g clip-path="url(#d2fba84c2f)"><g clip-path="url(#22902ea2c8)"><g clip-path="url(#904ff07981)"><path fill="#fa6000" d="M 288.355469 37.136719 C 288.453125 33.558594 288.546875 30.039062 288.644531 26.519531 C 317.765625 26.9375 342.558594 51.792969 341.480469 82.410156 C 337.949219 82.300781 334.417969 82.195312 330.851562 82.085938 C 331.027344 70.1875 327.210938 59.617188 318.933594 50.847656 C 310.652344 42.074219 300.320312 37.648438 288.355469 37.136719 Z M 288.355469 37.136719 " fill-opacity="1" fill-rule="nonzero"/></g></g></g><g clip-path="url(#195626477d)"><g clip-path="url(#2a0715115c)"><g clip-path="url(#4ce87d828b)"><path fill="#fa6000" d="M 287.636719 58.480469 C 287.738281 54.953125 287.832031 51.503906 287.929688 48.050781 C 287.933594 47.984375 287.949219 47.914062 287.957031 47.847656 C 305.085938 47.972656 320.75 62.519531 320.167969 81.792969 C 316.640625 81.691406 313.109375 81.582031 309.507812 81.476562 C 309.597656 75.453125 307.667969 69.996094 303.410156 65.488281 C 299.160156 60.988281 293.839844 58.746094 287.636719 58.480469 Z M 287.636719 58.480469 " fill-opacity="1" fill-rule="nonzero"/></g></g></g><g clip-path="url(#e8db638313)"><g clip-path="url(#9fea2e1bd4)"><g clip-path="url(#f1873da698)"><path fill="#fa6000" d="M 292.878906 87.316406 C 289.417969 90.578125 284 90.417969 280.738281 86.953125 C 277.488281 83.5 277.660156 78.046875 281.121094 74.804688 C 284.5625 71.578125 289.996094 71.742188 293.238281 75.171875 C 296.496094 78.621094 296.335938 84.050781 292.878906 87.316406 Z M 292.878906 87.316406 " fill-opacity="1" fill-rule="nonzero"/></g></g></g><g fill="#fa6000" fill-opacity="1"><g transform="translate(134.34077, 167.811717)"><g><path d="M 18.25 0 L 14.359375 0 L 11.578125 -10.3125 L 8.78125 0 L 4.859375 0 L -0.015625 -14.90625 L 4.03125 -14.90625 L 6.9375 -3.9375 L 9.796875 -14.90625 L 13.5 -14.90625 L 16.421875 -3.9375 L 19.296875 -14.90625 L 23.171875 -14.90625 Z M 18.25 0 "/></g></g></g><g fill="#fa6000" fill-opacity="1"><g transform="translate(158.419154, 167.811717)"><g><path d="M 5.28125 0 L 1.484375 0 L 1.484375 -14.90625 L 5.28125 -14.90625 Z M 5.28125 0 "/></g></g></g><g fill="#fa6000" fill-opacity="1"><g transform="translate(166.253668, 167.811717)"><g><path d="M 12.546875 -11.921875 L 5.28125 -11.921875 L 5.28125 -8.46875 L 11.96875 -8.46875 L 11.96875 -5.5 L 5.28125 -5.5 L 5.28125 0 L 1.484375 0 L 1.484375 -14.90625 L 12.546875 -14.90625 Z M 12.546875 -11.921875 "/></g></g></g><g fill="#fa6000" fill-opacity="1"><g transform="translate(180.176968, 167.811717)"><g><path d="M 5.28125 0 L 1.484375 0 L 1.484375 -14.90625 L 5.28125 -14.90625 Z M 5.28125 0 "/></g></g></g><g fill="#fa6000" fill-opacity="1"><g transform="translate(188.011482, 167.811717)"><g/></g></g><g fill="#fa6000" fill-opacity="1"><g transform="translate(194.015116, 167.811717)"><g><path d="M 15.25 0 L 11.453125 0 L 11.453125 -5.796875 L 5.28125 -5.796875 L 5.28125 0 L 1.484375 0 L 1.484375 -14.90625 L 5.28125 -14.90625 L 5.28125 -8.78125 L 11.453125 -8.78125 L 11.453125 -14.90625 L 15.25 -14.90625 Z M 15.25 0 "/></g></g></g><g fill="#fa6000" fill-opacity="1"><g transform="translate(211.813105, 167.811717)"><g><path d="M 8.5625 -15.03125 C 10.875 -15.03125 12.796875 -14.3125 14.328125 -12.875 C 15.867188 -11.4375 16.640625 -9.632812 16.640625 -7.46875 C 16.640625 -5.300781 15.867188 -3.484375 14.328125 -2.015625 C 12.785156 -0.554688 10.863281 0.171875 8.5625 0.171875 C 6.257812 0.171875 4.34375 -0.554688 2.8125 -2.015625 C 1.28125 -3.472656 0.515625 -5.289062 0.515625 -7.46875 C 0.515625 -9.644531 1.28125 -11.445312 2.8125 -12.875 C 4.34375 -14.3125 6.257812 -15.03125 8.5625 -15.03125 Z M 8.609375 -11.859375 C 7.441406 -11.859375 6.445312 -11.4375 5.625 -10.59375 C 4.800781 -9.75 4.390625 -8.703125 4.390625 -7.453125 C 4.390625 -6.203125 4.800781 -5.144531 5.625 -4.28125 C 6.457031 -3.425781 7.445312 -3 8.59375 -3 C 9.75 -3 10.726562 -3.425781 11.53125 -4.28125 C 12.332031 -5.144531 12.734375 -6.203125 12.734375 -7.453125 C 12.734375 -8.703125 12.332031 -9.75 11.53125 -10.59375 C 10.726562 -11.4375 9.753906 -11.859375 8.609375 -11.859375 Z M 8.609375 -11.859375 "/></g></g></g><g fill="#fa6000" fill-opacity="1"><g transform="translate(230.015586, 167.811717)"><g><path d="M 12.890625 -11.859375 L 8.390625 -11.859375 L 8.390625 0 L 4.59375 0 L 4.59375 -11.859375 L 0.15625 -11.859375 L 0.15625 -14.921875 L 12.890625 -14.921875 Z M 12.890625 -11.859375 "/></g></g></g><g fill="#fa6000" fill-opacity="1"><g transform="translate(244.087906, 167.811717)"><g><path d="M 7.21875 -15.078125 C 9.445312 -15.078125 11.40625 -14.523438 13.09375 -13.421875 L 11.671875 -10.453125 C 10.890625 -10.910156 10.050781 -11.285156 9.15625 -11.578125 C 8.257812 -11.867188 7.507812 -12.015625 6.90625 -12.015625 C 5.8125 -12.015625 5.265625 -11.648438 5.265625 -10.921875 C 5.265625 -10.453125 5.53125 -10.078125 6.0625 -9.796875 C 6.601562 -9.515625 7.257812 -9.269531 8.03125 -9.0625 C 8.8125 -8.851562 9.585938 -8.601562 10.359375 -8.3125 C 11.128906 -8.019531 11.785156 -7.546875 12.328125 -6.890625 C 12.867188 -6.242188 13.140625 -5.425781 13.140625 -4.4375 C 13.140625 -3 12.578125 -1.878906 11.453125 -1.078125 C 10.335938 -0.273438 8.910156 0.125 7.171875 0.125 C 5.941406 0.125 4.722656 -0.0859375 3.515625 -0.515625 C 2.304688 -0.941406 1.253906 -1.519531 0.359375 -2.25 L 1.828125 -5.171875 C 2.578125 -4.523438 3.460938 -3.988281 4.484375 -3.5625 C 5.515625 -3.144531 6.425781 -2.9375 7.21875 -2.9375 C 7.832031 -2.9375 8.304688 -3.046875 8.640625 -3.265625 C 8.984375 -3.484375 9.15625 -3.804688 9.15625 -4.234375 C 9.15625 -4.648438 8.957031 -4.992188 8.5625 -5.265625 C 8.175781 -5.546875 7.691406 -5.753906 7.109375 -5.890625 C 6.523438 -6.023438 5.894531 -6.203125 5.21875 -6.421875 C 4.539062 -6.648438 3.910156 -6.898438 3.328125 -7.171875 C 2.742188 -7.441406 2.253906 -7.867188 1.859375 -8.453125 C 1.472656 -9.046875 1.28125 -9.753906 1.28125 -10.578125 C 1.28125 -11.941406 1.820312 -13.03125 2.90625 -13.84375 C 3.988281 -14.664062 5.425781 -15.078125 7.21875 -15.078125 Z M 7.21875 -15.078125 "/></g></g></g><g fill="#fa6000" fill-opacity="1"><g transform="translate(258.862794, 167.811717)"><g><path d="M 1.484375 -14.90625 L 7.984375 -14.90625 C 9.890625 -14.90625 11.363281 -14.453125 12.40625 -13.546875 C 13.457031 -12.648438 13.984375 -11.375 13.984375 -9.71875 C 13.984375 -7.96875 13.457031 -6.609375 12.40625 -5.640625 C 11.363281 -4.679688 9.890625 -4.203125 7.984375 -4.203125 L 5.28125 -4.203125 L 5.28125 0 L 1.484375 0 Z M 5.28125 -11.921875 L 5.28125 -7.171875 L 7.796875 -7.171875 C 8.628906 -7.171875 9.273438 -7.375 9.734375 -7.78125 C 10.191406 -8.195312 10.421875 -8.796875 10.421875 -9.578125 C 10.421875 -10.347656 10.191406 -10.929688 9.734375 -11.328125 C 9.273438 -11.722656 8.628906 -11.921875 7.796875 -11.921875 Z M 5.28125 -11.921875 "/></g></g></g><g fill="#fa6000" fill-opacity="1"><g transform="translate(274.40411, 167.811717)"><g><path d="M 8.5625 -15.03125 C 10.875 -15.03125 12.796875 -14.3125 14.328125 -12.875 C 15.867188 -11.4375 16.640625 -9.632812 16.640625 -7.46875 C 16.640625 -5.300781 15.867188 -3.484375 14.328125 -2.015625 C 12.785156 -0.554688 10.863281 0.171875 8.5625 0.171875 C 6.257812 0.171875 4.34375 -0.554688 2.8125 -2.015625 C 1.28125 -3.472656 0.515625 -5.289062 0.515625 -7.46875 C 0.515625 -9.644531 1.28125 -11.445312 2.8125 -12.875 C 4.34375 -14.3125 6.257812 -15.03125 8.5625 -15.03125 Z M 8.609375 -11.859375 C 7.441406 -11.859375 6.445312 -11.4375 5.625 -10.59375 C 4.800781 -9.75 4.390625 -8.703125 4.390625 -7.453125 C 4.390625 -6.203125 4.800781 -5.144531 5.625 -4.28125 C 6.457031 -3.425781 7.445312 -3 8.59375 -3 C 9.75 -3 10.726562 -3.425781 11.53125 -4.28125 C 12.332031 -5.144531 12.734375 -6.203125 12.734375 -7.453125 C 12.734375 -8.703125 12.332031 -9.75 11.53125 -10.59375 C 10.726562 -11.4375 9.753906 -11.859375 8.609375 -11.859375 Z M 8.609375 -11.859375 "/></g></g></g><g fill="#fa6000" fill-opacity="1"><g transform="translate(292.606591, 167.811717)"><g><path d="M 12.890625 -11.859375 L 8.390625 -11.859375 L 8.390625 0 L 4.59375 0 L 4.59375 -11.859375 L 0.15625 -11.859375 L 0.15625 -14.921875 L 12.890625 -14.921875 Z M 12.890625 -11.859375 "/></g></g></g></svg>